# File created by Blade
# Date/Time:  Fri Jan 16 17:25:32 2015
#---------------------------------------------------------
:version 1.10
:name HOM
:units
  mass 1.0
  length 1.000000
  angle deg
:documentation
     Acclaim Skeleton File
:root
   axis xyz
   order TX TY TZ RX RY RZ
   position 0.000000 0.000000 0.000000
   orientation 0 0 0
:bonedata
   begin
      id 1
      name Spine_dum
      direction 0.000000 1.000000 0.000000
      length 7.170412
      axis 0.0 0.0 0.0 xyz
   end
   begin
      id 2
      name LeftUpLeg_dum
      direction 1.000000 0.000000 0.000000
      length 4.318350
      axis 0.0 0.0 0.0 xyz
   end
   begin
      id 3
      name RightUpLeg_dum
      direction -1.000000 0.000000 0.000000
      length 4.318350
      axis 0.0 0.0 0.0 xyz
   end
   begin
      id 4
      name Spine
      direction 0.000000 1.000000 0.000000
      length 0.000000
      axis 0.0 0.0 0.0 xyz
      dof rx ry rz
   end
   begin
      id 5
      name Spine_dum1
      direction 0.000000 1.000000 0.000000
      length 14.276153
      axis 0.0 0.0 0.0 xyz
   end
   begin
      id 6
      name Spine_dum2
      direction 0.000000 1.000000 0.000000
      length 10.718243
      axis 0.0 0.0 0.0 xyz
   end
   begin
      id 7
      name Spine_dum3
      direction 0.000000 1.000000 0.000000
      length 10.718243
      axis 0.0 0.0 0.0 xyz
   end
   begin
      id 8
      name Head
      direction 0.000000 1.000000 0.000000
      length 4.527550
      axis 0.0 0.0 0.0 xyz
      dof rx ry rz
   end
   begin
      id 9
      name LeftShoulder
      direction 1.000000 0.000000 0.000000
      length 7.058872
      axis 0.0 0.0 -90.0 xyz
      dof rx ry rz
   end
   begin
      id 10
      name LeftArm
      direction 1.000000 0.000000 0.000000
      length 10.955525
      axis 0.0 0.0 -90.0 xyz
      dof rx ry rz
   end
   begin
      id 11
      name LeftForeArm
      direction 1.000000 0.000000 0.000000
      length 8.193716
      axis 0.0 0.0 -90.0 xyz
      dof ry rz rx
   end
   begin
      id 12
      name LeftHand
      direction 0.000000 0.000000 0.000000
      length 0.000000
      axis 0.0 0.0 -90.0 xyz
      dof rx ry rz
   end
   begin
      id 13
      name LeftHand_dum1
      direction 0.000000 0.000000 0.000000
      length 0.000000
      axis 0.0 0.0 -90.0 xyz
   end
   begin
      id 14
      name LeftHand_dum2
      direction 1.000000 0.000000 0.000000
      length 3.937000
      axis 0.0 0.0 -90.0 xyz
   end
   begin
      id 15
      name LeftHandThumb1
      direction 0.000000 0.000000 1.000000
      length 3.937000
      axis 0.0 0.0 -90.0 xyz
      dof rx rz ry
   end
   begin
      id 16
      name RightShoulder
      direction -1.000000 0.000000 0.000000
      length 7.058872
      axis 0.0 0.0 90.0 xyz
      dof rx ry rz
   end
   begin
      id 17
      name RightArm
      direction -1.000000 0.000000 0.000000
      length 10.955525
      axis 0.0 0.0 90.0 xyz
      dof rx ry rz
   end
   begin
      id 18
      name RightForeArm
      direction -1.000000 0.000000 0.000000
      length 8.193716
      axis 0.0 0.0 90.0 xyz
      dof ry rz rx
   end
   begin
      id 19
      name RightHand
      direction 0.000000 0.000000 0.000000
      length 0.000000
      axis 0.0 0.0 90.0 xyz
      dof rx ry rz
   end
   begin
      id 20
      name RightHand_dum1
      direction 0.000000 0.000000 0.000000
      length 0.000000
      axis 0.0 0.0 90.0 xyz
   end
   begin
      id 21
      name RightHand_dum2
      direction -1.000000 0.000000 0.000000
      length 3.937000
      axis 0.0 0.0 90.0 xyz
   end
   begin
      id 22
      name RightHandThumb1
      direction 0.000000 0.000000 1.000000
      length 3.937000
      axis 0.0 0.0 90.0 xyz
      dof rx rz ry
   end
   begin
      id 23
      name LeftUpLeg
      direction 0.000000 -1.000000 0.000000
      length 17.323638
      axis 0.0 0.0 0.0 xyz
      dof rx ry rz
   end
   begin
      id 24
      name LeftLeg
      direction 0.000000 -1.000000 0.000000
      length 16.270368
      axis 0.0 0.0 0.0 xyz
      dof rx ry rz
   end
   begin
      id 25
      name LeftFoot
      direction 0.000000 -0.258819 0.965926
      length 4.922846
      axis 15.0 0.0 0.0 xyz
      dof rx ry rz
   end
   begin
      id 26
      name LeftToeBase
      direction 0.000000 0.000000 1.000000
      length 2.952750
      axis 0.0 0.0 0.0 xyz
      dof rx ry rz
   end
   begin
      id 27
      name RightUpLeg
      direction 0.000000 -1.000000 0.000000
      length 17.323638
      axis 0.0 0.0 0.0 xyz
      dof rx ry rz
   end
   begin
      id 28
      name RightLeg
      direction 0.000000 -1.000000 0.000000
      length 16.270368
      axis 0.0 0.0 0.0 xyz
      dof rx ry rz
   end
   begin
      id 29
      name RightFoot
      direction 0.000000 -0.258819 0.965926
      length 4.922846
      axis 15.0 0.0 0.0 xyz
      dof rx ry rz
   end
   begin
      id 30
      name RightToeBase
      direction 0.000000 0.000000 1.000000
      length 2.952750
      axis 0.0 0.0 0.0 xyz
      dof rx ry rz
   end
:hierarchy
   begin
      root Spine_dum LeftUpLeg_dum RightUpLeg_dum
      Spine_dum Spine
      LeftUpLeg_dum LeftUpLeg
      RightUpLeg_dum RightUpLeg
      Spine Spine_dum1 Spine_dum2 Spine_dum3
      Spine_dum1 Head
      Spine_dum2 LeftShoulder
      Spine_dum3 RightShoulder
      LeftShoulder LeftArm
      LeftArm LeftForeArm
      LeftForeArm LeftHand
      LeftHand LeftHand_dum1 LeftHand_dum2
      LeftHand_dum1 LeftHandThumb1
      RightShoulder RightArm
      RightArm RightForeArm
      RightForeArm RightHand
      RightHand RightHand_dum1 RightHand_dum2
      RightHand_dum1 RightHandThumb1
      LeftUpLeg LeftLeg
      LeftLeg LeftFoot
      LeftFoot LeftToeBase
      RightUpLeg RightLeg
      RightLeg RightFoot
      RightFoot RightToeBase
   end

# File created by Blade
# Date/Time:  Fri Jan 16 17:25:22 2015
# Frame Rate: 120.000 fps
#------------------------------------------------------
:FULLY-SPECIFIED
:DEGREES
1097
root -5.758218 35.209669 -10.364614 -3.226959 -9.424750 -6.239734
Spine 2.659293 0.984419 9.782110
Head 3.862927 3.666835 -5.646557
LeftShoulder -19.266241 16.297347 -17.401487
LeftArm 27.099611 19.677661 -65.018645
LeftForeArm 12.323359 0.000000 15.450227
LeftHand 0.754314 -0.000000 -6.344954
LeftHandThumb1 -26.253704 0.000000 33.147579
RightShoulder -1.497138 -4.049013 2.934495
RightArm 11.355562 -36.073156 65.676997
RightForeArm -25.856412 -0.000000 23.889489
RightHand 2.219951 0.000000 7.936996
RightHandThumb1 -24.326973 -0.000000 -32.862282
LeftUpLeg 13.896893 17.125706 8.661561
LeftLeg -9.376736 -0.000000 0.000000
LeftFoot -15.175722 29.345150 -7.527821
LeftToeBase 23.048840 -0.000000 -0.000000
RightUpLeg 9.059961 -4.198867 2.888208
RightLeg -4.356718 -0.000000 0.000000
RightFoot -3.903662 -22.779820 5.264682
RightToeBase 13.792228 -0.000000 -0.000000
1098
root -5.758927 35.209831 -10.367572 -3.201396 -9.445655 -6.243724
Spine 2.641067 0.988128 9.773996
Head 3.910231 3.636966 -5.608759
LeftShoulder -19.260471 16.296250 -17.383918
LeftArm 27.101495 19.608399 -64.991087
LeftForeArm 12.727261 0.000000 15.459878
LeftHand 0.672610 -0.000000 -5.533091
LeftHandThumb1 -26.253704 0.000000 33.147579
RightShoulder -1.496070 -4.042271 2.949764
RightArm 11.342773 -36.062713 65.678302
RightForeArm -25.864429 -0.000000 23.878177
RightHand 2.225942 -0.000000 7.944043
RightHandThumb1 -24.326973 -0.000000 -32.862282
LeftUpLeg 13.868309 17.153929 8.662015
LeftLeg -9.368880 -0.000000 0.000000
LeftFoot -15.176150 29.339313 -7.521210
LeftToeBase 23.056115 -0.000000 -0.000000
RightUpLeg 9.028700 -4.164885 2.900268
RightLeg -4.358478 -0.000000 0.000000
RightFoot -3.892968 -22.801022 5.272337
RightToeBase 13.753579 -0.000000 -0.000000
1099
root -5.760475 35.210077 -10.368397 -3.195844 -9.464626 -6.249266
Spine 2.641472 0.988817 9.769726
Head 3.969316 3.613349 -5.576181
LeftShoulder -19.242309 16.313713 -17.362712
LeftArm 27.112905 19.579776 -64.960792
LeftForeArm 12.727750 0.000000 15.459651
LeftHand 0.672571 -0.000000 -5.520730
LeftHandThumb1 -26.253704 0.000000 33.147579
RightShoulder -1.495433 -4.022365 2.962029
RightArm 11.313374 -36.062620 65.686627
RightForeArm -25.874481 -0.000000 23.874090
RightHand 2.242505 -0.000000 7.941688
RightHandThumb1 -24.326973 -0.000000 -32.862282
LeftUpLeg 13.867493 17.138356 8.665851
LeftLeg -9.369639 -0.000000 0.000000
LeftFoot -15.178364 29.369731 -7.522999
LeftToeBase 23.033179 -0.000000 -0.000000
RightUpLeg 9.021938 -4.153593 2.905656
RightLeg -4.357749 -0.000000 0.000000
RightFoot -3.889102 -22.775180 5.276440
RightToeBase 13.763240 -0.000000 -0.000000
1100
root -5.760870 35.210342 -10.370768 -3.187552 -9.487650 -6.252475
Spine 2.644109 1.000641 9.763813
Head 4.024256 3.599969 -5.545146
LeftShoulder -19.217367 16.312895 -17.329386
LeftArm 27.119869 19.597399 -64.928498
LeftForeArm 12.619951 -0.000000 15.445051
LeftHand 0.726816 -0.000000 -5.679367
LeftHandThumb1 -26.253704 0.000000 33.147579
RightShoulder -1.503389 -4.019519 2.977404
RightArm 11.298881 -36.047623 65.685625
RightForeArm -25.869280 -0.000000 23.886617
RightHand 2.219880 -0.000000 7.935207
RightHandThumb1 -24.326973 -0.000000 -32.862282
LeftUpLeg 13.859384 17.125509 8.662846
LeftLeg -9.364405 -0.000000 0.000000
LeftFoot -15.191271 29.402978 -7.541737
LeftToeBase 23.021795 -0.000000 -0.000000
RightUpLeg 9.006533 -4.138312 2.911408
RightLeg -4.351840 -0.000000 0.000000
RightFoot -3.892548 -22.768524 5.266769
RightToeBase 13.838140 -0.000000 -0.000000
1101
root -5.761826 35.210421 -10.372865 -3.175247 -9.500541 -6.257376
Spine 2.637012 0.984731 9.757584
Head 4.093271 3.585853 -5.515638
LeftShoulder -19.210214 16.330319 -17.304001
LeftArm 27.134877 19.604732 -64.900973
LeftForeArm 12.426481 -0.000000 15.434579
LeftHand 0.721457 -0.000000 -6.096364
LeftHandThumb1 -26.253704 0.000000 33.147579
RightShoulder -1.500113 -4.026874 2.984489
RightArm 11.321983 -36.104747 65.644691
RightForeArm -25.817404 -0.000000 23.894840
RightHand 2.212433 -0.000000 7.943146
RightHandThumb1 -24.326973 -0.000000 -32.862282
LeftUpLeg 13.840952 17.148977 8.667856
LeftLeg -9.350998 -0.000000 0.000000
LeftFoot -15.194238 29.397502 -7.517545
LeftToeBase 23.032809 -0.000000 -0.000000
RightUpLeg 8.988649 -4.138255 2.918858
RightLeg -4.348039 -0.000000 0.000000
RightFoot -3.882791 -22.756914 5.277433
RightToeBase 13.779852 -0.000000 -0.000000
1102
root -5.762400 35.210623 -10.374514 -3.170133 -9.522775 -6.261197
Spine 2.641307 0.983434 9.751047
Head 4.159804 3.565016 -5.484223
LeftShoulder -19.192707 16.340489 -17.273376
LeftArm 27.146856 19.613050 -64.886193
LeftForeArm 12.150221 -0.000000 15.399464
LeftHand 0.761981 -0.000000 -6.632073
LeftHandThumb1 -26.253704 0.000000 33.147579
RightShoulder -1.499559 -4.028634 2.994116
RightArm 11.306438 -36.070557 65.652298
RightForeArm -25.842280 0.000000 23.918216
RightHand 2.103272 -0.000000 7.831660
RightHandThumb1 -24.326973 -0.000000 -32.862282
LeftUpLeg 13.835319 17.161023 8.671498
LeftLeg -9.340912 -0.000000 0.000000
LeftFoot -15.216425 29.408064 -7.541363
LeftToeBase 23.068478 -0.000000 -0.000000
RightUpLeg 8.976837 -4.138604 2.923288
RightLeg -4.343616 -0.000000 0.000000
RightFoot -3.881053 -22.734503 5.291815
RightToeBase 13.777533 -0.000000 -0.000000
1103
root -5.763122 35.210740 -10.376522 -3.166002 -9.543932 -6.263176
Spine 2.649665 0.982099 9.740284
Head 4.225520 3.544602 -5.447069
LeftShoulder -19.169108 16.339043 -17.231430
LeftArm 27.135460 19.607057 -64.874068
LeftForeArm 12.213412 -0.000000 15.414712
LeftHand 0.748848 -0.000000 -6.426051
LeftHandThumb1 -26.253704 0.000000 33.147579
RightShoulder -1.506072 -4.016366 3.012367
RightArm 11.300253 -36.075207 65.638880
RightForeArm -25.775474 -0.000000 23.924935
RightHand 2.101419 -0.000000 7.814421
RightHandThumb1 -24.326973 -0.000000 -32.862282
LeftUpLeg 13.826581 17.133321 8.668063
LeftLeg -9.327792 -0.000000 0.000000
LeftFoot -15.221163 29.448947 -7.525569
LeftToeBase 23.090814 -0.000000 -0.000000
RightUpLeg 8.961945 -4.146447 2.923746
RightLeg -4.330188 -0.000000 0.000000
RightFoot -3.879221 -22.703789 5.281704
RightToeBase 13.744423 -0.000000 -0.000000
1104
root -5.765164 35.210921 -10.378317 -3.163796 -9.561977 -6.268455
Spine 2.657507 0.968409 9.733334
Head 4.290620 3.541918 -5.423049
LeftShoulder -19.159722 16.349212 -17.212938
LeftArm 27.140089 19.544411 -64.843717
LeftForeArm 12.649733 -0.000000 15.439190
LeftHand 0.707208 -0.000000 -5.423586
LeftHandThumb1 -26.253704 0.000000 33.147579
RightShoulder -1.510417 -4.011539 3.033511
RightArm 11.303382 -36.100552 65.614473
RightForeArm -25.711718 -0.000000 23.938691
RightHand 2.123661 -0.000000 7.774808
RightHandThumb1 -24.326973 -0.000000 -32.862282
LeftUpLeg 13.824232 17.153007 8.678665
LeftLeg -9.321885 -0.000000 0.000000
LeftFoot -15.227353 29.451428 -7.491582
LeftToeBase 23.149343 -0.000000 -0.000000
RightUpLeg 8.953624 -4.138073 2.932834
RightLeg -4.322313 -0.000000 0.000000
RightFoot -3.874351 -22.693224 5.270142
RightToeBase 13.778979 -0.000000 -0.000000
1105
root -5.765658 35.211057 -10.380125 -3.161256 -9.577137 -6.267978
Spine 2.665605 0.958254 9.725068
Head 4.353829 3.527900 -5.408590
LeftShoulder -19.143700 16.349108 -17.175441
LeftArm 27.110773 19.484649 -64.885186
LeftForeArm 12.729930 -0.000000 15.453519
LeftHand 0.656088 -0.000000 -5.346569
LeftHandThumb1 -26.253704 0.000000 33.147579
RightShoulder -1.516330 -4.025699 3.046923
RightArm 11.325145 -36.109623 65.585060
RightForeArm -25.679762 -0.000000 23.952045
RightHand 2.108765 -0.000000 7.689061
RightHandThumb1 -24.326973 -0.000000 -32.862282
LeftUpLeg 13.814143 17.133705 8.673003
LeftLeg -9.304890 -0.000000 0.000000
LeftFoot -15.246011 29.480617 -7.539052
LeftToeBase 23.071082 -0.000000 -0.000000
RightUpLeg 8.946609 -4.134200 2.932721
RightLeg -4.321964 -0.000000 0.000000
RightFoot -3.871728 -22.680681 5.270127
RightToeBase 13.783885 -0.000000 -0.000000
1106
root -5.765635 35.210932 -10.381885 -3.161096 -9.597956 -6.269752
Spine 2.684137 0.952814 9.722901
Head 4.390487 3.525253 -5.406145
LeftShoulder -19.124632 16.341838 -17.135078
LeftArm 27.096054 19.537184 -64.873297
LeftForeArm 12.449611 -0.000000 15.452007
LeftHand 0.727662 -0.000000 -5.953267
LeftHandThumb1 -26.253704 0.000000 33.147579
RightShoulder -1.528851 -4.007710 3.055770
RightArm 11.325573 -36.127527 65.573857
RightForeArm -25.651729 -0.000000 23.957503
RightHand 2.104723 -0.000000 7.698868
RightHandThumb1 -24.326973 -0.000000 -32.862282
LeftUpLeg 13.813073 17.171101 8.679333
LeftLeg -9.295416 -0.000000 0.000000
LeftFoot -15.255441 29.463664 -7.543872
LeftToeBase 23.087432 -0.000000 -0.000000
RightUpLeg 8.939827 -4.129379 2.933964
RightLeg -4.317231 -0.000000 0.000000
RightFoot -3.869442 -22.657940 5.281146
RightToeBase 13.762581 -0.000000 -0.000000
1107
root -5.766828 35.211154 -10.383551 -3.160483 -9.623022 -6.276277
Spine 2.700727 0.947085 9.728617
Head 4.432002 3.507360 -5.410134
LeftShoulder -19.107811 16.342660 -17.104003
LeftArm 27.094022 19.576785 -64.848437
LeftForeArm 12.357102 -0.000000 15.448438
LeftHand 0.744020 -0.000000 -6.022976
LeftHandThumb1 -26.253704 0.000000 33.147579
RightShoulder -1.545569 -4.030336 3.065586
RightArm 11.370038 -36.148211 65.522958
RightForeArm -25.587758 -0.000000 23.984314
RightHand 2.084606 -0.000000 7.680384
RightHandThumb1 -24.326973 -0.000000 -32.862282
LeftUpLeg 13.808429 17.163364 8.683463
LeftLeg -9.273413 -0.000000 0.000000
LeftFoot -15.281905 29.491419 -7.546674
LeftToeBase 23.093838 -0.000000 -0.000000
RightUpLeg 8.933347 -4.095336 2.942710
RightLeg -4.311503 -0.000000 0.000000
RightFoot -3.871904 -22.661211 5.296371
RightToeBase 13.741318 -0.000000 -0.000000
